<svg height="512" viewBox="0 0 60 60" width="512" xmlns="http://www.w3.org/2000/svg"><g id="002---Self-Driving-Vehicle" fill="none"><g id="Layer_4" transform="translate(1 14)"><g fill="#e8edfc"><path id="Shape" d="m24.11 33c-1.3470724 1.315124-2.1076366 3.1174088-2.11 5h-8c-.0023634-1.8825912-.7629276-3.684876-2.11-5z"/><path id="Shape" d="m46.11 33c-1.3470724 1.315124-2.1076366 3.1174088-2.11 5h-8c-.0023634-1.8825912-.7629276-3.684876-2.11-5z"/><path id="Shape" d="m51 5v26c-1.8305704-.0073767-3.5892661.7119263-4.89 2h-12.22c-2.7194481-2.654957-7.0605519-2.654957-9.78 0h-12.22c-1.3019622-1.2862155-3.05985549-2.0051903-4.89-2v-21c.00007724-1.75538972.4622279-3.4798325 1.34-5z"/></g><path id="Shape" d="m51 5v26c-1.8305704-.0073767-3.5892661.7119263-4.89 2-.16 0-.4.29 1.89-2v-26z" fill="#cad9fc"/><path id="Shape" d="m51 2v3h-42.66c1.7862826-3.09393217 5.0874349-4.99990924 8.66-5h32c1.1045695 0 2 .8954305 2 2z" fill="#e8edfc"/><path id="Shape" d="m49 0h-3c1.1045695 0 2 .8954305 2 2v3h3v-3c0-1.1045695-.8954305-2-2-2z" fill="#cad9fc"/><path id="Shape" d="m21 13v5.19c.0106736.4796928-.3208621.8993583-.79 1l-13.21 2.81v-10c14.32 0 13.28-.06 13.66.25.2157843.1895698.3396363.4627728.34.75z" fill="#fff"/><rect id="Rectangle-path" fill="#fff" height="7" rx="1" width="8" x="25" y="12"/><rect id="Rectangle-path" fill="#fff" height="7" rx="1" width="8" x="38" y="12"/><circle id="Oval" cx="7" cy="38" fill="#e8edfc" r="7"/><circle id="Oval" cx="29" cy="38" fill="#e8edfc" r="7"/><path id="Shape" d="m58 38c-.0013648 3.6703059-2.8373918 6.716314-6.4982574 6.9793921-3.6608657.2630782-6.9032886-2.3461186-7.4294423-5.9785159-.5261537-3.6323972 1.8426511-7.0543818 5.4276997-7.8408762 2.0711187-.4543658 4.2365624.0545356 5.8884965 1.3838567s2.612292 3.3357706 2.6115035 5.4561433z" fill="#a4c2f7"/><ellipse id="Oval" cx="49.5" cy="38" fill="#e8edfc" rx="5.5" ry="6.84"/><circle id="Oval" cx="7" cy="38" fill="#fff" r="3"/><circle id="Oval" cx="29" cy="38" fill="#fff" r="3"/><circle id="Oval" cx="51" cy="38" fill="#fff" r="3"/></g><path id="Shape" d="m7 45c.50481251.0001082 1.00801531-.0569215 1.5-.17-3.81904896-.6102747-6.42027446-4.200951-5.80999982-8.02.61027464-3.8190489 4.20095083-6.4202745 8.01999982-5.81-.2364223-.0152086-.4735777-.0152086-.71 0v-21c0-5.5228475 4.4771525-10 10-10h-3c-5.5228475 0-10 4.4771525-10 10v21c.23642233-.0152086.47357767-.0152086.71 0-3.86599325-.1960611-7.15893891 2.7790068-7.355 6.645s2.77900675 7.1589389 6.645 7.355z" fill="#fff" transform="translate(1 14)"/><g id="Layer_11" transform="translate(-1)"><path id="Shape" d="m11.34 16.11 1.4 1.44c-1.7472503 1.6915114-2.735605 4.0181128-2.74 6.45h-2c.00123834-2.9733161 1.20608295-5.8194909 3.34-7.89z" fill="#fff"/><g fill="#428dff"><path id="Shape" d="m12 51c-.5522847 0-1 .4477153-1 1 0 1.1045695-.8954305 2-2 2s-2-.8954305-2-2 .8954305-2 2-2c.55228475 0 1-.4477153 1-1s-.44771525-1-1-1c-2.209139 0-4 1.790861-4 4s1.790861 4 4 4 4-1.790861 4-4c0-.5522847-.4477153-1-1-1z"/><path id="Shape" d="m34 51c-.5522847 0-1 .4477153-1 1 0 1.1045695-.8954305 2-2 2s-2-.8954305-2-2 .8954305-2 2-2c.5522847 0 1-.4477153 1-1s-.4477153-1-1-1c-2.209139 0-4 1.790861-4 4s1.790861 4 4 4 4-1.790861 4-4c0-.5522847-.4477153-1-1-1z"/><path id="Shape" d="m54 44.07v-28.07c0-1.6568542-1.3431458-3-3-3h-32c-2.8605859.0012272-5.6081798 1.1167647-7.66 3.11-.1987308.188794-.3112511.4508885-.3112511.725s.1125203.536206.3112511.725c.3862983.3682542.9937017.3682542 1.38 0 1.6794496-1.6395517 3.9329428-2.5581731 6.28-2.56h32c.5522847 0 1 .4477153 1 1v2h-35c-.5522847 0-1 .4477153-1 1s.4477153 1 1 1h35v24.07c-1.5855948.1972966-3.0742658.870162-4.27 1.93h-11.46c-3.0067748-2.6681146-7.5332252-2.6681146-10.54 0h-11.46c-1.1957342-1.059838-2.6844052-1.7327034-4.27-1.93v-2.27l12.23-2.8c.5522847-.1270255.8970255-.6777153.77-1.23s-.6777153-.8970255-1.23-.77l-11.77 2.74v-2.93l12.42-2.66c.9382758-.2012834 1.6013473-1.0406144 1.58-2v-5.15c0-1.1045695-.8954305-2-2-2h-12v-1c0-.5522847-.44771525-1-1-1s-1 .4477153-1 1v20.07c-4.12948867.5158837-7.17378593 4.1116037-7.00143053 8.2696208s3.50379265 7.4894543 7.66180975 7.6618097c4.15801708.1723554 7.75373708-2.8719418 8.26962078-7.0014305h6.14c.5293286 3.9750415 3.9198698 6.944017 7.93 6.944017s7.4006714-2.9689755 7.93-6.944017h6.14c.5158837 4.1294887 4.1116037 7.1737859 8.2696208 7.0014305s7.4894543-3.5037926 7.6618097-7.6618097-2.8719418-7.7537371-7.0014305-8.2696208zm-8.93 6.93h-6.14c-.1324841-1.0561042-.4723247-2.0756262-1-3h8.16c-.5346698.922878-.8813346 1.9424805-1.02 3zm-22 0h-6.14c-.1324841-1.0561042-.4723247-2.0756262-1-3h8.16c-.5346698.922878-.8813346 1.9424805-1.02 3zm-1.07-18.81.21 1zm0-5.19v5.19l-12 2.57v-7.76zm-13 31c-3.3137085 0-6-2.6862915-6-6s2.6862915-6 6-6c1.5641295-.0025742 3.0661508.611889 4.18 1.71 1.7420045 1.7033112 2.2810611 4.2909057 1.3641301 6.5481355-.916931 2.2572297-3.1077777 3.735884-5.5441301 3.7418645zm22 0c-2.4363524-.0059805-4.6271991-1.4846348-5.5441301-3.7418645-.916931-2.2572298-.3778744-4.8448243 1.3641301-6.5481355 2.3281082-2.2608402 6.0318918-2.2608402 8.36 0 1.7420045 1.7033112 2.2810611 4.2909057 1.3641301 6.5481355-.916931 2.2572297-3.1077777 3.735884-5.5441301 3.7418645zm22 0c-2.4363524-.0059805-4.6271991-1.4846348-5.5441301-3.7418645-.916931-2.2572298-.3778744-4.8448243 1.3641301-6.5481355 1.1138492-1.098111 2.6158705-1.7125742 4.18-1.71 3.3137085 0 6 2.6862915 6 6s-2.6862915 6-6 6z"/><path id="Shape" d="m56 51c-.5522847 0-1 .4477153-1 1 0 1.1045695-.8954305 2-2 2s-2-.8954305-2-2 .8954305-2 2-2c.5522847 0 1-.4477153 1-1s-.4477153-1-1-1c-2.209139 0-4 1.790861-4 4s1.790861 4 4 4 4-1.790861 4-4c0-.5522847-.4477153-1-1-1z"/><path id="Shape" d="m9.81 21.09c-.55228475 0-1-.4477153-1-1s.44771525-1 1-1c.5522847 0 1 .4477153 1 1s-.4477153 1-1 1z"/><path id="Shape" d="m36 32v-5c0-1.1045695-.8954305-2-2-2h-6c-1.1045695 0-2 .8954305-2 2v5c0 1.1045695.8954305 2 2 2h6c1.1045695 0 2-.8954305 2-2zm-8-5h6v5h-6z"/><path id="Shape" d="m49 32v-5c0-1.1045695-.8954305-2-2-2h-6c-1.1045695 0-2 .8954305-2 2v5c0 1.1045695.8954305 2 2 2h6c1.1045695 0 2-.8954305 2-2zm-8-5h6v5h-6z"/><path id="Shape" d="m29 36c-.5522847 0-1 .4477153-1 1s.4477153 1 1 1h4c.5522847 0 1-.4477153 1-1s-.4477153-1-1-1z"/><path id="Shape" d="m42 36c-.5522847 0-1 .4477153-1 1s.4477153 1 1 1h4c.5522847 0 1-.4477153 1-1s-.4477153-1-1-1z"/><path id="Shape" d="m36 8c.4089135.00247188.7781319-.2442714.9322766-.62302698s.062154-.8132002-.2322766-1.09697302c-3.1930144-3.03746284-8.2069856-3.03746284-11.4 0-.397645.38659932-.4065993 1.02235498-.02 1.42s1.022355.40659932 1.42.02c2.4069822-2.29587637 6.1930178-2.29587637 8.6 0 .1878666.18108515.4390724.28156748.7.28z"/><path id="Shape" d="m28.22 9.37c-.3479394.4307821-.2807821 1.0620606.15 1.41s1.0620606.2807821 1.41-.15c.289207-.3821391.74076-.6066907 1.22-.6066907s.930793.2245516 1.22.6066907c.1906301.2349915.4774116.3710289.78.37.2289953.000964.4513841-.0766957.63-.22.2074797-.1666732.3399622-.4091759.3681156-.6738175.0281533-.26464159-.0503451-.52958907-.2181156-.7361825-.6645389-.86214125-1.6914691-1.36717476-2.78-1.36717476s-2.1154611.50503351-2.78 1.36717476z"/><path id="Shape" d="m24.72 4.7c1.6335772-1.72462716 3.9045183-2.70154642 6.28-2.70154642s4.6464228.97691926 6.28 2.70154642c.3865993.39764499 1.022355.40659928 1.42.01999997.397645-.38659932.4065993-1.02235495.02-1.41999997-2.0149327-2.10776935-4.8040704-3.3000271-7.72-3.3000271s-5.7050673 1.19225775-7.72 3.3000271c-.3865993.39764502-.377645 1.03340067.02 1.41999998.397645.38659932 1.0334007.37764503 1.42-.01999998z"/></g></g></g></svg>