<svg height="512" viewBox="0 0 512 512" width="512" xmlns="http://www.w3.org/2000/svg"><g id="Filled_outline" data-name="Filled outline"><path d="m207.997 104h-80v-16l40-24h40z" fill="#f98500"/><path d="m207.997 152h-80v16l40 24h40z" fill="#f98500"/><path d="m207.997 80h32v96h-32z" fill="#ffb531"/><path d="m240 96h40a32 32 0 0 1 32 32 32 32 0 0 1 -32 32h-40a0 0 0 0 1 0 0v-64a0 0 0 0 1 0 0z" fill="#f98500"/><rect fill="#f98500" height="304" rx="40" width="80" x="407.997" y="24"/><path d="m448 496h-112v-64l16-24v-48a40 40 0 0 1 40-40 40 40 0 0 1 40 40v48l16 24z" fill="#ffb531"/><path d="m455.58 248.737-.124-.024a39.894 39.894 0 0 0 -39.565 15.381l-56.191 64.944a39.251 39.251 0 0 0 -7 15.962 39.649 39.649 0 0 0 31.712 46.267l.125.024a39.893 39.893 0 0 0 39.563-15.386l56.2-64.943a39.235 39.235 0 0 0 6.992-15.962 39.647 39.647 0 0 0 -31.712-46.263z" fill="#ffa912"/><path d="m477.3 91.66a38.456 38.456 0 0 1 -14.08 9.8l-103.32 41.41-14.86 5.96-21.24 8.51a36.88 36.88 0 0 1 -40-8.34l-.08-.09c-15.22-15.22-15.68-40.55-1.03-56.57a38.622 38.622 0 0 1 14.08-9.8l16.54-6.63 14.86-5.96 108.02-43.29a36.88 36.88 0 0 1 40 8.34l.09.09c15.21 15.22 15.67 40.55 1.02 56.57z" fill="#ffb531"/><path d="m207.997 488h-80l16-56h48z" fill="#cfcfcd"/><path d="m103.998 480h128v16h-128z" fill="#e0e0de"/><path d="m312 392v16a24.006 24.006 0 0 1 -24 24h-240a24 24 0 0 1 -24-24v-16z" fill="#e0e0de"/><path d="m312 256v136h-288v-136a24 24 0 0 1 24-24h240a24.006 24.006 0 0 1 24 24z" fill="#348fd9"/><path d="m312 256v136h-205.69l162.71-160h18.98a24.006 24.006 0 0 1 24 24z" fill="#3086cd"/><path d="m24 376h288v16h-288z" fill="#3086cd"/><path d="m312 392v16a24.006 24.006 0 0 1 -24 24h-222.37l40.68-40z" fill="#d6d6d4"/><path d="m264 360v32h-68.29a32 32 0 1 0 -55.42 0h-68.29v-32h25.8a71.855 71.855 0 0 1 9.25-22.32l-18.25-18.25 22.63-22.63 18.25 18.25a71.4 71.4 0 0 1 22.32-9.24v-25.81h32v25.81a71.6 71.6 0 0 1 22.32 9.24l18.25-18.25 22.62 22.63-18.25 18.25a71.378 71.378 0 0 1 9.25 22.32z" fill="#f35244"/><path d="m136 376a31.791 31.791 0 0 0 4.29 16h-68.29v-16z" fill="#e64c3f"/><path d="m264 376v16h-68.29a31.892 31.892 0 0 0 4.29-16z" fill="#e64c3f"/><path d="m481.936 29.435-.087-.087a45.037 45.037 0 0 0 -48.63-10.112l-139.419 55.879a46.816 46.816 0 0 0 -17.01 11.824c-.317.348-.616.707-.922 1.061h-27.868v-8a8 8 0 0 0 -8-8h-24v-8a8 8 0 0 0 -8-8h-40a8.015 8.015 0 0 0 -4.117 1.14l-40 24a8 8 0 0 0 -3.883 6.86v16a8 8 0 0 0 8 8h72v32h-72a8 8 0 0 0 -8 8v16a8 8 0 0 0 3.883 6.86l40 24a8.015 8.015 0 0 0 4.117 1.14h40a8 8 0 0 0 8-8v-8h24a8 8 0 0 0 8-8v-8h32a40.21 40.21 0 0 0 14.656-2.791 44.712 44.712 0 0 0 32.123-.444l139.421-55.88a46.635 46.635 0 0 0 13.8-8.657v107.772h-64v-56h-16v118.235l-46.354 53.565c-.134.154-.262.314-.383.478a47.271 47.271 0 0 0 -9.1 31.993c-.1 1.217-.163 49.3-.163 49.3l-14.657 21.984a8 8 0 0 0 -1.343 4.445v16h-56v-8h16a32.036 32.036 0 0 0 32-32v-152a32.036 32.036 0 0 0 -32-32h-240a32.036 32.036 0 0 0 -32 32v152a32.036 32.036 0 0 0 32 32h85.393l-11.428 40h-17.965v16h128v-16h-17.968l-11.432-40h21.4v16a40.045 40.045 0 0 0 40 40h184a8 8 0 0 0 8-8v-56a8.005 8.005 0 0 0 -1.344-4.438l-14.656-21.984v-35.814l39.228-45.336a47.924 47.924 0 0 0 16.7-34.374c.02-.411.072-226.054.072-226.054h-.063a48.534 48.534 0 0 0 -14.001-34.565zm-281.936 146.565v8h-29.787l-34.213-20.529v-3.471h64zm0-96v16h-64v-3.471l34.213-20.529h29.787zm32 88h-16v-80h16zm16-16v-48h18.727a49.475 49.475 0 0 0 8.973 48zm-216 104a16.018 16.018 0 0 1 16-16h240a16.019 16.019 0 0 1 16 16v128h-32v-24a8 8 0 0 0 -8-8h-19.688a79.3 79.3 0 0 0 -5.383-12.99l13.921-13.921a8 8 0 0 0 0-11.315l-22.627-22.628a8 8 0 0 0 -11.314 0l-13.922 13.922a79.325 79.325 0 0 0 -12.987-5.381v-19.687a8 8 0 0 0 -8-8h-32a8 8 0 0 0 -8 8v19.687a79.222 79.222 0 0 0 -12.991 5.382l-13.922-13.923a8 8 0 0 0 -11.313 0l-22.629 22.628a8 8 0 0 0 0 11.315l13.921 13.921a79.211 79.211 0 0 0 -5.382 12.99h-19.684a8 8 0 0 0 -8 8v24h-32zm136 80a40 40 0 0 0 -39.191 48h-48.809v-16h17.8a8 8 0 0 0 7.8-6.229 63.476 63.476 0 0 1 8.215-19.825 8 8 0 0 0 -1.112-9.922l-12.593-12.592 11.314-11.315 12.593 12.595a8 8 0 0 0 9.922 1.111 63.486 63.486 0 0 1 19.825-8.215 8 8 0 0 0 6.229-7.8v-17.808h16v17.807a8 8 0 0 0 6.228 7.8 63.5 63.5 0 0 1 19.826 8.215 8 8 0 0 0 9.921-1.112l12.593-12.594 11.314 11.315-12.593 12.592a8 8 0 0 0 -1.112 9.922 63.476 63.476 0 0 1 8.215 19.825 8 8 0 0 0 7.8 6.229h17.815v16h-48.81a39.992 39.992 0 0 0 -39.19-47.999zm24 40a24.009 24.009 0 0 1 -1.383 8h-45.237a24 24 0 1 1 46.62-8zm-53.4 104 11.428-40h35.931l11.429 40zm-90.6-56a16.018 16.018 0 0 1 -16-16v-8h272v8a16.019 16.019 0 0 1 -16 16zm280 56h-64a24.027 24.027 0 0 1 -24-24v-16h16v8a16.018 16.018 0 0 0 16 16h56zm112 0h-96v-45.578l14.656-21.984a8.005 8.005 0 0 0 1.344-4.438v-20.129a47.808 47.808 0 0 0 22.937 11.255l.106.02a47.621 47.621 0 0 0 8.92.841 48.319 48.319 0 0 0 32.037-12.187v20.2a8 8 0 0 0 1.343 4.438l7.707 11.562h-65.05v16h72zm40-192.651c0 .46-.006.921-.023 1.383 0 .078-.007.155-.009.233a31.3 31.3 0 0 1 -5.928 17.008l-55.984 64.7c-.134.154-.262.314-.383.478a32.039 32.039 0 0 1 -31.652 12.276l-.105-.02a31.773 31.773 0 0 1 -20.4-13.308 31.114 31.114 0 0 1 -4.955-23.6 31.452 31.452 0 0 1 5.4-12.472l55.982-64.7c.134-.154.262-.314.384-.478a32.051 32.051 0 0 1 31.657-12.275l.113.021a31.778 31.778 0 0 1 20.383 13.305 31.17 31.17 0 0 1 5.52 17.392zm0-35.222a47.787 47.787 0 0 0 -22.919-11.249h-.024l-.1-.019a48.25 48.25 0 0 0 -40.957 11.33v-28.189h64zm-159.175-102.214a29.05 29.05 0 0 1 -31.364-6.573l-.086-.087c-12.211-12.213-12.56-32.632-.779-45.517a30.7 30.7 0 0 1 11.152-7.768l16.535-6.628 25.8 58.052zm159.175-85.913v.8a33.148 33.148 0 0 1 -8.6 21.465 30.733 30.733 0 0 1 -11.152 7.769l-103.3 41.4-25.8-58.052 108.025-43.3a28.641 28.641 0 0 1 10.67-2.059 29.27 29.27 0 0 1 20.694 8.632l.087.087a32.557 32.557 0 0 1 9.376 23.258z"/><path d="m47.998 256h16v16h-16z"/><path d="m47.998 288h16v48h-16z"/></g></svg>